<mxfile host="app.diagrams.net" modified="2021-05-13T16:25:01.205Z" agent="5.0 (Windows NT 10.0; Win64; x64) AppleWebKit/537.36 (KHTML, like Gecko) Chrome/89.0.4389.82 Safari/537.36" etag="DR8lMdCkpE-_nDGnYXsG" version="14.6.13" type="github">
  <diagram id="5dIWhAAniWmHhM2tPZLN" name="第 1 页">
    <mxGraphModel dx="1422" dy="762" grid="1" gridSize="10" guides="1" tooltips="1" connect="1" arrows="1" fold="1" page="1" pageScale="1" pageWidth="827" pageHeight="1169" math="0" shadow="0">
      <root>
        <mxCell id="0" />
        <mxCell id="1" parent="0" />
        <mxCell id="c8AQCtWM8057aprzoIqa-5" value="File Header(38B)" style="rounded=0;whiteSpace=wrap;html=1;strokeWidth=2;" vertex="1" parent="1">
          <mxGeometry x="210" y="90" width="120" height="40" as="geometry" />
        </mxCell>
        <mxCell id="c8AQCtWM8057aprzoIqa-6" value="Page Header(56B)" style="rounded=0;whiteSpace=wrap;html=1;strokeWidth=2;" vertex="1" parent="1">
          <mxGeometry x="210" y="130" width="120" height="40" as="geometry" />
        </mxCell>
      </root>
    </mxGraphModel>
  </diagram>
</mxfile>
